<?xml version="1.0" encoding="UTF-8" standalone="no"?>
<svg
   version="1.0"
   width="300.000000pt"
   height="169.000000pt"
   viewBox="0 0 300.000000 169.000000"
   preserveAspectRatio="xMidYMid meet"
   id="svg3"
   sodipodi:docname="telkom-2.svg"
   inkscape:version="1.4 (e7c3feb100, 2024-10-09)"
   xmlns:inkscape="http://www.inkscape.org/namespaces/inkscape"
   xmlns:sodipodi="http://sodipodi.sourceforge.net/DTD/sodipodi-0.dtd"
   xmlns="http://www.w3.org/2000/svg"
   xmlns:svg="http://www.w3.org/2000/svg">
  <defs
     id="defs3" />
  <sodipodi:namedview
     id="namedview3"
     pagecolor="#ffffff"
     bordercolor="#000000"
     borderopacity="0.25"
     inkscape:showpageshadow="2"
     inkscape:pageopacity="0.0"
     inkscape:pagecheckerboard="0"
     inkscape:deskcolor="#d1d1d1"
     inkscape:document-units="px"
     inkscape:zoom="2.5044105"
     inkscape:cx="204.04003"
     inkscape:cy="140.95133"
     inkscape:window-width="1592"
     inkscape:window-height="971"
     inkscape:window-x="0"
     inkscape:window-y="0"
     inkscape:window-maximized="1"
     inkscape:current-layer="svg3" />
  <metadata
     id="metadata1">
Created by potrace 1.10, written by Peter Selinger 2001-2011
</metadata>
  <g
     id="g1"
     transform="matrix(1.9666703,0,0,1.9672388,-147.11738,-61.425838)">
    <g
       transform="matrix(0.1,0,0,-0.1,0,169)"
       fill="#000000"
       stroke="none"
       id="g3">
      <path
         style="fill:#ffed00;fill-opacity:1;stroke-width:0.413248"
         d="m 211.48977,96.386947 c 0.73323,-1.346517 3.53476,-5.360174 6.22562,-8.919239 4.90844,-6.492137 6.47186,-8.958569 6.47186,-10.209963 0,-0.369875 -0.64741,-1.830177 -1.43869,-3.245114 -1.41141,-2.523839 -5.28133,-11.060786 -5.07274,-11.190364 0.30993,-0.192542 11.71872,0.717292 11.94638,0.952706 0.37554,0.388341 5.72275,14.30289 5.72275,14.891779 0,0.684464 -12.46515,16.636017 -14.02697,17.950202 -1.60654,1.351817 -3.38506,1.820216 -7.76197,2.044226 l -3.39938,0.17398 z"
         id="path9"
         transform="matrix(7.5,0,0,-7.5,0,1690)" />
      <path
         style="fill:#ffed00;fill-opacity:1;stroke-width:0.413248"
         d="m 211.43261,96.961393 c 0.53738,-0.945821 2.71392,-4.087979 4.83674,-6.982574 5.89449,-8.037487 7.9179,-11.23088 7.9179,-12.496245 0,-0.624359 -1.39172,-3.994302 -3.0927,-7.488761 -1.70099,-3.494459 -3.0957,-6.517019 -3.09937,-6.716801 -0.006,-0.341245 5.17255,-0.106548 9.59269,0.434728 l 1.95426,0.239312 2.50618,6.391695 c 1.3784,3.515432 2.60659,6.893717 2.7293,7.507298 0.23872,1.193565 -1.58461,3.819967 -9.64359,13.891096 -4.39239,5.489072 -5.62195,6.231751 -11.0153,6.653484 l -3.66317,0.286442 z"
         id="path10"
         transform="matrix(7.5000001,0,0,-7.5000001,0,1690)" />
      <path
         style="fill:#ffed00;fill-opacity:1;stroke-width:0.413248"
         d="m 227.29039,98.523062 c 0.63739,-1.08838 2.83679,-3.871838 9.2073,-11.652333 5.97484,-7.297247 6.33117,-7.830468 5.93745,-8.88484 -0.23037,-0.61693 -1.71965,-4.097078 -3.30951,-7.733664 -1.58985,-3.636586 -2.75056,-6.757063 -2.57933,-6.934394 0.17122,-0.17733 2.78658,-0.270311 5.81191,-0.206624 l 5.5006,0.115796 2.19425,5.992101 c 2.43485,6.649165 2.72654,9.002737 1.461,11.788658 -1.35703,2.987343 -9.77417,13.605187 -12.35913,15.59048 -1.91727,1.472496 -3.56278,1.915959 -8.31797,2.241684 -3.28281,0.224868 -3.83494,0.175539 -3.54657,-0.316864 z"
         id="path11"
         transform="matrix(7.5000001,0,0,-7.5000001,0,1690)" />
      <path
         style="fill:#ffed00;fill-opacity:1;stroke-width:0.129963"
         d="m 204.36637,139.76635 c -3.35232,-0.50099 -4.90463,-2.53677 -7.57451,-9.9336 -1.86201,-5.15867 -2.69254,-8.15309 -2.69254,-9.70782 0,-1.86289 0.8819,-3.56028 3.98821,-7.6761 4.5345,-6.00815 6.27427,-7.74048 8.44795,-8.41186 0.70488,-0.21772 1.18856,-0.2588 2.94365,-0.25 2.16486,0.0109 3.02243,-0.10604 4.75883,-0.64871 0.46155,-0.14425 0.85764,-0.24381 0.8802,-0.22125 0.0926,0.0926 -0.81122,2.45103 -1.46304,3.81783 -1.02641,2.15223 -1.72266,3.13796 -5.70336,8.07462 -2.26173,2.80488 -3.58353,4.54845 -3.54689,4.67865 0.0665,0.23629 4.31362,10.24992 6.78529,15.99802 0.90671,2.10865 1.70003,3.96549 1.76292,4.12632 l 0.11436,0.29241 -3.99314,-0.0158 c -2.19622,-0.009 -4.31479,-0.0639 -4.70793,-0.12267 z"
         id="path12"
         transform="matrix(7.5000001,0,0,-7.5000001,0,1690)" />
      <path
         style="fill:#ffffff;fill-opacity:1;stroke-width:0.129963"
         d="m 140.8146,139.95761 c -4.40069,-0.52408 -7.64943,-2.03884 -9.45067,-4.4065 -2.16557,-2.84654 -3.28832,-7.17578 -3.1177,-12.02155 0.20339,-5.77623 2.0096,-10.02889 5.82829,-13.72246 2.87358,-2.77943 6.37071,-4.64001 10.39935,-5.53276 1.08489,-0.24041 1.73302,-0.29765 3.35872,-0.29665 2.2242,0.001 3.57143,0.2544 5.15136,0.9675 4.84191,2.18538 6.90896,7.93127 4.50201,12.51444 -1.63098,3.10559 -5.29791,5.03903 -13.26501,6.99413 -3.71262,0.91107 -4.81988,1.29487 -5.44989,1.88904 -0.44963,0.42406 -0.46003,0.45588 -0.39249,1.20079 0.096,1.05896 0.72295,2.32687 1.48005,2.9933 1.20124,1.05738 2.80203,1.56518 4.94384,1.56829 2.14932,0.003 3.88415,-0.47392 5.85263,-1.60934 1.96506,-1.13344 3.05202,-1.27887 4.42617,-0.5922 1.0719,0.53563 2.03996,1.46891 2.24488,2.16423 0.14825,0.50302 0.13367,0.60104 -0.18685,1.25614 -0.59856,1.22341 -3.02703,3.21465 -5.57097,4.56795 -1.33853,0.71206 -3.76469,1.52147 -5.42525,1.80997 -1.2055,0.20944 -4.42112,0.36373 -5.32847,0.25568 z m 0.73879,-21.68344 c 1.48034,-0.31226 3.94415,-1.10371 5.05688,-1.62442 1.10869,-0.51882 2.0238,-1.24135 2.33542,-1.84396 0.53558,-1.03571 -0.11764,-2.84458 -1.25887,-3.48599 -0.46015,-0.25862 -0.66425,-0.29078 -1.52807,-0.24078 -0.81831,0.0474 -1.14764,0.13757 -1.8376,0.50328 -1.95309,1.03522 -5.0661,4.83075 -5.0661,6.17682 0,0.72647 0.62846,0.8673 2.29834,0.51505 z"
         id="path13"
         transform="matrix(7.5000001,0,0,-7.5000001,0,1690)" />
      <path
         style="fill:#ffffff;fill-opacity:1;stroke-width:0.129963"
         d="m 110.40333,139.8343 c -0.10722,-0.0232 -0.4077,-0.0767 -0.66774,-0.11888 -0.26004,-0.0422 -0.62556,-0.22956 -0.81227,-0.41627 -0.48064,-0.48064 -0.4564,-1.01951 0.30861,-6.85887 0.35645,-2.72077 1.05863,-8.2804 1.5604,-12.35473 1.60637,-13.04362 1.96461,-15.79858 2.41666,-18.58467 0.24355,-1.501068 0.44296,-2.773079 0.44312,-2.826688 1.5e-4,-0.05361 -2.27633,-0.09747 -5.05886,-0.09747 -7.92759,0 -8.54431,-0.170556 -7.94108,-2.196107 0.39594,-1.329494 0.63419,-2.667086 0.73668,-4.135975 0.0834,-1.195711 0.11263,-1.294782 0.49461,-1.677996 0.49614,-0.497741 1.60397,-0.771784 3.90619,-0.966266 0.8686,-0.07337 8.55021,-0.165983 17.33821,-0.209024 15.32731,-0.07507 15.77601,-0.07039 15.68621,0.163635 -0.45722,1.191476 -1.50846,6.123788 -1.50846,7.077495 0,0.993605 -0.92551,1.539011 -3.05465,1.800125 -0.64303,0.07886 -3.11371,0.143545 -5.4904,0.143747 -3.37065,2.85e-4 -4.32106,0.0361 -4.32036,0.162819 5e-4,0.08935 -0.5029,4.256275 -1.11866,9.259845 -0.61577,5.00356 -1.71561,14.21467 -2.4441,20.46912 l -1.32454,11.37174 -4.47731,0.0183 c -2.46253,0.01 -4.56504,-6.9e-4 -4.67226,-0.0238 z"
         id="path14"
         sodipodi:nodetypes="csssssssscsssssssssscccc"
         transform="matrix(7.5000001,0,0,-7.5000001,0,1690)" />
      <path
         style="fill:#ffffff;fill-opacity:1;stroke-width:0.129963"
         d="m 161.08879,139.66445 c 0,-0.14745 0.14909,-1.19175 0.33131,-2.32067 0.92815,-5.75023 2.93419,-22.3352 4.82021,-39.85124 l 1.01932,-9.466774 4.67985,0.05809 c 4.84385,0.06012 5.41959,0.120794 5.92293,0.624138 0.30698,0.30697 0.32572,0.964989 0.0664,2.33089 -0.60945,3.210059 -5.58775,42.971046 -5.87957,46.959256 -0.0709,0.96917 -0.12624,1.17463 -0.35618,1.32262 -0.57679,0.37122 -1.78312,0.47792 -6.15304,0.54423 -4.43154,0.0672 -4.45122,0.0663 -4.45122,-0.20054 z"
         id="path15"
         transform="matrix(7.5000001,0,0,-7.5000001,0,1690)" />
      <path
         style="fill:#ffffff;fill-opacity:1;stroke-width:0.129963"
         d="m 179.3372,139.4175 c 0.68137,-4.34169 5.51856,-43.591033 6.00234,-48.703524 0.15137,-1.599596 0.43331,-1.97701 1.76615,-2.364187 0.53547,-0.15555 1.64575,-0.21493 4.94671,-0.264563 2.34096,-0.0352 4.25628,-0.03377 4.25628,0.0032 0,0.03694 -0.14769,1.081434 -0.3282,2.321093 -0.54293,3.728566 -1.8345,14.338561 -3.04298,24.997401 -0.81035,7.14729 -2.70923,23.35708 -2.81271,24.01061 l -0.0772,0.48736 h -5.39345 -5.39345 z"
         id="path16"
         transform="matrix(7.5000001,0,0,-7.5000001,0,1690)" />
      <path
         style="fill:#ffffff;fill-opacity:1;stroke-width:0.129963"
         d="m 224.77052,139.76333 c -1.84083,-0.2366 -3.46017,-1.13372 -5.78334,-3.204 -2.81431,-2.50795 -3.95457,-4.02576 -4.42879,-5.89522 -0.32467,-1.27991 -0.40765,-6.94938 -0.13237,-9.04435 1.08818,-8.28164 5.81496,-14.42028 12.82244,-16.65245 2.43086,-0.77432 5.42105,-1.07811 8.01363,-0.81414 2.60327,0.26505 4.15411,0.92281 6.19787,2.62871 1.85912,1.55178 3.55332,3.59489 4.20007,5.06505 1.08715,2.47123 1.26687,7.82922 0.41525,12.37943 -1.558,8.32434 -6.9852,13.86406 -14.90595,15.21497 -1.12863,0.19249 -4.41912,0.47701 -5.16417,0.44653 -0.21444,-0.009 -0.77003,-0.0648 -1.23464,-0.12453 z m 6.12541,-7.98719 c 1.79577,-0.63359 3.41236,-2.73148 4.20642,-5.45879 0.59985,-2.06028 0.74842,-3.46877 0.67104,-6.36176 -0.1072,-4.00801 -0.50481,-6.06352 -1.33314,-6.89185 -0.84587,-0.84587 -2.84315,-1.1057 -4.3039,-0.55989 -2.24947,0.84051 -4.72751,5.34704 -5.45244,9.91575 -0.25032,1.57758 -0.17422,4.28814 0.15339,5.46371 0.63494,2.27837 1.92899,3.74308 3.61685,4.09383 0.64795,0.13465 1.74683,0.0442 2.44178,-0.201 z"
         id="path17"
         sodipodi:nodetypes="csssssssssccsssssssss"
         transform="matrix(7.5000001,0,0,-7.5000001,0,1690)" />
      <path
         style="fill:#ffffff;fill-opacity:1;stroke-width:0.129963"
         d="m 251.34789,139.84453 c -0.0715,-0.0266 -0.35581,-0.0862 -0.63184,-0.13258 -0.27604,-0.0463 -0.64156,-0.22391 -0.81227,-0.39462 -0.37174,-0.37175 -0.40791,-1.05011 -0.12242,-2.29607 0.59651,-2.60341 1.88147,-12.98904 3.59478,-29.05473 l 0.41926,-3.93138 2.28524,0.002 c 3.15281,0.003 4.48605,0.31492 5.35755,1.25298 0.41258,0.44408 0.67347,0.96542 1.40693,2.81145 0.30647,0.77134 0.603,1.38542 0.65895,1.36461 0.0559,-0.0208 0.75274,-0.75417 1.54841,-1.62968 1.62606,-1.78922 2.43574,-2.45466 3.65318,-3.00238 1.26885,-0.57084 2.42675,-0.81227 3.88743,-0.81053 2.23282,0.003 4.04082,0.67152 5.34985,1.97917 0.59037,0.58976 0.93384,1.13007 1.75526,2.76121 0.5617,1.11538 1.06192,2.02819 1.1116,2.02847 0.0497,2.8e-4 0.90794,-0.88093 1.90724,-1.95824 2.1949,-2.36623 3.09642,-3.11227 4.63052,-3.83188 1.63679,-0.76779 2.30125,-0.90407 4.35376,-0.89296 3.82729,0.0207 6.25923,1.08416 7.43234,3.25004 0.47098,0.86956 0.95666,2.59502 1.13109,4.01838 0.20356,1.66111 0.17805,5.86089 -0.053,8.72977 -0.18051,2.24113 -1.7749,17.95976 -1.95204,19.2447 l -0.0762,0.55234 h -5.46189 -5.46189 l 0.0763,-0.48736 c 0.042,-0.26804 0.42968,-3.14623 0.86155,-6.39595 1.36897,-10.30147 1.77244,-14.51333 1.64376,-17.15979 -0.12906,-2.6544 -0.61113,-3.50899 -1.9794,-3.50899 -4.01067,0 -6.30138,5.1267 -7.40391,16.57024 -0.11707,1.21516 -0.36933,4.16856 -0.56057,6.56312 l -0.34771,4.35375 -4.41235,0.0343 c -2.61321,0.0203 -4.70573,-0.02 -5.13186,-0.0987 -0.94648,-0.17497 -1.32451,-0.54888 -1.40128,-1.38601 -0.0346,-0.37773 0.25684,-2.83482 0.72984,-6.15231 1.35258,-9.48677 1.70313,-12.72828 1.70061,-15.72549 -0.002,-2.79501 -0.30631,-3.80211 -1.30638,-4.32828 -0.68561,-0.36072 -1.86808,-0.25279 -2.67133,0.24382 -1.74952,1.08164 -3.44253,4.46356 -4.38688,8.76312 -0.18054,0.82202 -0.65415,3.85647 -1.05245,6.74322 -1.27325,9.228 -1.72658,10.83571 -3.26959,11.59529 -0.60798,0.29929 -0.75093,0.31215 -3.75117,0.33763 -1.71551,0.0146 -3.17759,0.005 -3.24907,-0.0218 z"
         id="path18"
         transform="matrix(7.5000001,0,0,-7.5000001,0,1690)" />
    </g>
  </g>
  <path
     style="fill:#00aaca;stroke-width:0.399296;fill-opacity:1"
     d="m 19.377107,192.61491 c -1.346841,-0.5375 -1.595228,-1.042 -1.60234,-3.25458 -0.0069,-2.13659 7.072742,-59.20699 8.594949,-69.28591 0.540116,-3.57625 0.98203,-6.8267 0.98203,-7.22324 0,-0.67185 -0.756306,-0.73788 -11.102227,-0.96925 -7.4138401,-0.16581 -11.6256094,-0.42092 -12.6776341,-0.76791 -1.49959,-0.49461 -1.5728398,-0.59623 -1.5220618,-2.11156 0.046944,-1.40092 0.8963825,-6.95735 1.6748595,-10.95577 C 4.0807768,96.217718 5.5571537,95.404618 9.5056861,94.862862 12.562393,94.443469 76.4651,93.705289 76.4651,94.089373 c 0,0.102675 -0.530392,2.513043 -1.178644,5.356373 -0.648257,2.843334 -1.300406,6.157944 -1.449224,7.365814 -0.522382,4.23994 -1.678207,4.61861 -15.303924,5.01384 -9.763951,0.28322 -10.037165,0.31351 -10.214388,1.13242 -0.164211,0.75876 -4.949053,40.79055 -8.249829,69.02113 l -1.295548,11.08045 -9.204735,-0.0253 c -5.062604,-0.0139 -9.648869,-0.20255 -10.191701,-0.41918 z"
     id="path1"
     transform="scale(0.75000001)" />
  <path
     style="fill:#00aaca;stroke-width:0.399296;fill-opacity:1"
     d="m 78.304531,192.82621 c -6.699056,-1.22766 -11.710462,-3.63821 -14.98992,-7.21033 -7.349584,-8.00546 -9.306316,-25.886 -4.236318,-38.71132 6.991418,-17.68584 30.809729,-29.06383 45.898527,-21.92569 2.71344,1.28367 6.28871,4.47325 7.68517,6.85611 2.56355,4.37439 3.23102,10.06952 1.70947,14.58615 -2.59389,7.69984 -8.57043,11.37541 -26.182495,16.10224 -12.432959,3.33683 -13.024,3.70713 -12.15007,7.61226 0.977798,4.36926 4.235646,6.97248 9.752779,7.79305 4.722382,0.70237 8.196434,0.0381 13.840052,-2.64633 5.025364,-2.39035 6.408094,-2.61259 8.976664,-1.44277 1.7493,0.79669 4.5919,3.68548 4.5919,4.66652 0,2.99215 -7.93892,9.49951 -14.773239,12.10928 -6.137193,2.34358 -14.427753,3.25445 -20.12252,2.21083 z m 6.512656,-42.50909 c 5.226549,-1.44835 9.010038,-3.10839 10.75399,-4.71839 1.436817,-1.32646 1.657293,-1.75276 1.657293,-3.20443 0,-2.20039 -1.288603,-4.6569 -2.87251,-5.47597 -1.714615,-0.88666 -5.010839,-0.52959 -7.255704,0.78599 -2.206159,1.29289 -6.686621,6.05037 -8.225999,8.7346 -1.139107,1.98627 -1.534482,3.83884 -0.945073,4.42825 0.527354,0.52736 4.001079,0.24996 6.888003,-0.55005 z"
     id="path2"
     transform="scale(0.75000001)" />
  <path
     style="fill:#00aaca;stroke-width:0.399296;fill-opacity:1"
     d="m 120.93414,192.01586 c 1.30246,-6.39802 5.89614,-44.0354 10.09838,-82.73893 l 1.92168,-17.699054 9.67808,0.130052 c 9.33031,0.125378 9.70939,0.161391 10.54959,1.00221 l 0.87152,0.872158 -1.45384,10.507764 c -2.55002,18.43048 -8.02661,62.17982 -9.96199,79.58066 l -0.88764,7.98066 -1.19616,0.57317 c -0.89388,0.42833 -3.5537,0.62001 -10.52521,0.75853 l -9.32904,0.18536 z"
     id="path3"
     transform="scale(0.75000001)" />
  <path
     style="fill:#00aaca;stroke-width:0.399296;fill-opacity:1"
     d="m 156.87136,191.56205 c 0.47623,-2.82584 9.01409,-71.77192 10.44554,-84.35119 1.11428,-9.792091 1.58925,-12.798901 2.14455,-13.576051 1.11145,-1.555488 3.41494,-1.928879 12.11821,-1.964343 7.64071,-0.03114 7.88608,-0.0072 7.88608,0.769554 0,0.440929 -0.35602,3.360777 -0.79117,6.488553 -1.03631,7.448827 -2.94089,23.284117 -6.39898,53.203037 -3.08269,26.67109 -4.2529,36.63734 -4.60636,39.23079 l -0.23128,1.697 h -10.40947 -10.40946 z"
     id="path4"
     transform="scale(0.75000001)" />
  <path
     style="fill:#00aaca;stroke-width:0.399296;fill-opacity:1"
     d="m 244.16924,192.41927 c -3.36148,-0.89936 -6.0864,-2.74814 -11.04197,-7.49161 -3.80794,-3.64497 -4.77161,-4.82238 -6.02885,-7.366 l -1.49643,-3.02756 v -8.60582 c 0,-9.62337 0.44954,-12.70153 2.75057,-18.83434 4.77291,-12.72094 14.74808,-21.22067 27.56941,-23.49161 3.55418,-0.62952 11.23656,-0.52419 13.98524,0.19175 3.50803,0.91373 6.74787,2.81837 10.06741,5.91846 3.73221,3.48547 6.37273,7.15861 7.44558,10.35733 0.73389,2.1881 0.83368,3.46155 0.85127,10.86385 0.0159,6.69718 -0.12679,9.05207 -0.70888,11.69779 -3.94248,17.91927 -15.04277,28.10754 -32.69646,30.01004 -5.12171,0.55195 -8.02891,0.49154 -10.69689,-0.22228 z m 14.57428,-15.28018 c 3.21866,-1.47019 6.51818,-6.27821 8.04537,-11.72358 1.37606,-4.90653 1.04505,-18.56171 -0.55593,-22.93345 -0.5851,-1.59771 -1.0131,-2.08471 -2.48572,-2.82844 -2.22389,-1.12314 -5.53008,-1.18591 -7.81424,-0.14835 -3.5965,1.63368 -7.71452,8.4176 -9.6036,15.8207 -0.89531,3.50865 -1.00075,4.62256 -0.86927,9.1838 0.12384,4.29626 0.30282,5.53112 1.03853,7.16534 2.01116,4.46734 4.28287,6.16994 8.25191,6.18465 1.4883,0.006 3.00075,-0.26746 3.99295,-0.72067 z"
     id="path5"
     transform="scale(0.75000001)" />
  <path
     style="fill:#00aaca;stroke-width:0.399296;fill-opacity:1"
     d="m 297.01777,192.78307 c -0.47119,-0.0922 -1.17653,-0.52097 -1.56742,-0.95289 -0.6827,-0.75439 -0.66866,-1.04056 0.35654,-7.26484 1.19937,-7.28175 3.53135,-26.2961 5.64279,-46.00978 0.77622,-7.24721 1.51535,-13.7874 1.64252,-14.53376 l 0.23121,-1.357 4.86216,0.26168 c 8.27474,0.44535 9.61822,1.23104 12.02216,7.03076 0.82233,1.98392 1.62025,3.60713 1.77316,3.60713 0.15291,0 1.97064,-1.73361 4.0394,-3.85247 2.84985,-2.91887 4.36499,-4.13493 6.25216,-5.01805 6.37625,-2.9838 14.29688,-1.90663 18.2633,2.48372 0.78277,0.86644 2.08015,2.87981 2.88305,4.47417 0.80291,1.59436 1.73613,3.32052 2.07382,3.83591 l 0.61399,0.93707 4.84077,-4.96886 c 4.19016,-4.30103 5.26784,-5.17748 8.01842,-6.52119 l 3.17766,-1.55234 5.59014,0.0244 c 4.85239,0.0212 5.90632,0.14645 7.98591,0.94926 3.58557,1.38418 6.13148,4.15349 7.36431,8.01049 0.84615,2.64725 0.97572,3.9213 1.11677,10.98063 0.16144,8.0806 -0.30576,14.09457 -3.35789,43.22374 l -0.67986,6.48855 h -10.50705 c -6.64988,0 -10.50704,-0.14475 -10.50704,-0.3943 0,-0.21687 0.62178,-5.02339 1.38173,-10.68116 2.32202,-17.28721 3.40966,-27.96303 3.40745,-33.44599 -0.003,-7.95232 -0.7429,-9.55726 -4.36681,-9.47472 -4.98607,0.11358 -8.4989,4.2812 -11.00398,13.05513 -1.9637,6.87781 -2.96421,14.18028 -4.44941,32.47538 l -0.69039,8.5044 -9.6672,-0.11919 c -8.84972,-0.10911 -9.7382,-0.18352 -10.50689,-0.87985 -1.15771,-1.04873 -1.10799,-2.10691 0.73452,-15.63328 2.43737,-17.89337 2.90853,-22.33109 2.96516,-27.92787 0.0623,-6.16036 -0.21702,-7.74726 -1.6088,-9.13905 -0.84142,-0.84142 -1.42215,-1.04299 -3.00485,-1.04299 -2.42535,0 -3.83064,0.70125 -5.63895,2.81385 -3.56964,4.17033 -5.84895,11.03005 -7.68895,23.14036 -2.50559,16.49115 -3.38059,21.47286 -4.17928,23.79429 -1.54787,4.49894 -2.60058,4.97418 -10.85553,4.90062 -3.35614,-0.0299 -6.4876,-0.12979 -6.9588,-0.22196 z"
     id="path6"
     transform="scale(0.75000001)" />
  <path
     style="fill:#00aaca;fill-opacity:1;stroke-width:0.399296"
     d="m 243.4853,191.91486 c -3.12438,-1.07952 -6.10263,-3.24388 -10.67807,-7.76001 -3.224,-3.18221 -4.4408,-4.70326 -5.56581,-6.95748 l -1.43978,-2.88492 v -7.30759 c 0,-8.87424 0.47139,-12.96137 2.03413,-17.63653 5.92039,-17.71176 20.24951,-27.29774 38.49437,-25.75218 3.5034,0.29678 4.39837,0.53885 7.29967,1.97441 5.267,2.60612 11.29861,8.95195 13.42589,14.12532 0.76969,1.87181 0.83611,2.79837 0.83273,11.61714 -0.004,9.23693 -0.0436,9.72733 -1.10933,13.57605 -3.01318,10.88173 -9.10991,18.96272 -17.63467,23.37409 -7.32512,3.79058 -20.00507,5.58526 -25.65913,3.6317 z m 16.69363,-15.42622 c 2.05915,-1.44827 4.75071,-5.27252 5.94655,-8.44903 1.39377,-3.70229 1.71787,-6.92141 1.48097,-14.71011 -0.30837,-10.13867 -1.07504,-12.72542 -4.15838,-14.03046 -1.99958,-0.84633 -5.93993,-0.69356 -8.01451,0.31072 -3.28599,1.59072 -6.9946,7.73906 -9.10418,15.09344 -0.96961,3.38023 -1.03512,4.09759 -0.88789,9.72275 0.14172,5.41438 0.26056,6.26819 1.09542,7.87009 1.31752,2.528 2.26227,3.6543 3.95154,4.71093 1.27452,0.7972 1.89491,0.90201 4.72719,0.79859 2.87483,-0.10497 3.46143,-0.26061 4.96329,-1.31692 z"
     id="path7"
     transform="scale(0.75000001)" />
  <path
     style="fill:#00aaca;fill-opacity:1;stroke-width:0.399296"
     d="m 161.54828,155.83191 c 2.54382,-20.48262 5.26054,-42.46838 6.03714,-48.85724 0.77661,-6.38886 1.66007,-12.13308 1.96325,-12.764928 0.8517,-1.775004 2.66104,-2.106551 11.68636,-2.141428 l 7.94075,-0.03069 -0.22382,2.495597 c -0.12311,1.372579 -0.9477,8.245459 -1.83242,15.273059 -0.88473,7.0276 -2.97603,24.54669 -4.64735,38.93132 -1.67131,14.38462 -3.5218,30.19672 -4.11221,35.13801 l -1.07345,8.98415 -10.18169,0.10664 -10.18168,0.10664 z"
     id="path8"
     transform="scale(0.75000001)" />
  <path
     style="fill:#00aaca;fill-opacity:1;stroke-width:0.399296"
     d="m 121.41236,190.38755 c 1.10914,-5.89961 4.89818,-36.98143 8.96652,-73.55306 1.52441,-13.70349 2.8213,-24.965071 2.88197,-25.025738 0.0607,-0.06067 4.3092,-0.0058 9.44119,0.121862 8.74122,0.217493 9.38811,0.284986 10.23643,1.068004 l 0.90555,0.835839 -1.54335,11.180273 c -2.03447,14.73812 -7.1324,55.15036 -9.14222,72.47215 -1.26455,10.89859 -1.73253,13.87416 -2.24071,14.24715 -0.8003,0.58741 -3.58219,0.83448 -12.78652,1.13561 l -7.22997,0.23654 z"
     id="path19"
     transform="scale(0.75000001)" />
  <path
     style="fill:#00aaca;fill-opacity:1;stroke-width:0.399296"
     d="m 77.662987,192.48734 c -5.628824,-1.19703 -10.082575,-3.30407 -13.315198,-6.29932 -8.481637,-7.85884 -10.445019,-28.55287 -3.950955,-41.64303 2.404854,-4.84749 8.065152,-11.07667 13.225748,-14.55499 10.491362,-7.07133 24.206648,-8.912 32.069708,-4.30394 3.33225,1.95283 5.80176,4.55153 7.40184,7.78907 1.47636,2.98724 1.5037,3.12637 1.5037,7.65514 0,4.21271 -0.0942,4.8043 -1.08688,6.82362 -3.23467,6.58022 -8.36581,9.47818 -25.357146,14.32121 -9.264146,2.64055 -10.780915,3.18075 -11.804363,4.20421 -1.463638,1.46363 -0.404607,5.83774 2.013151,8.31489 2.005244,2.05451 5.047831,3.13929 9.506242,3.38929 4.223636,0.23683 6.194876,-0.22853 12.410546,-2.92983 4.50057,-1.95593 6.19352,-2.15245 8.48255,-0.98467 1.94941,0.99451 4.03907,3.37289 4.03907,4.59714 0,2.76094 -8.91209,9.56056 -15.553324,11.86664 -5.803898,2.01533 -14.637237,2.8067 -19.584689,1.75457 z m 9.779515,-42.73113 c 4.192224,-1.41043 6.893994,-2.78514 8.488257,-4.31899 1.114338,-1.07211 1.297711,-1.52238 1.297711,-3.18651 0,-3.75286 -1.98084,-5.89128 -5.457164,-5.89128 -3.805949,0 -6.787082,1.87789 -10.676789,6.72558 -2.663025,3.31889 -3.43153,4.81514 -3.43153,6.68107 v 1.46744 l 3.294188,-0.20184 c 2.039563,-0.12497 4.509567,-0.61074 6.485327,-1.27547 z"
     id="path20"
     transform="scale(0.75000001)" />
  <path
     style="fill:#00aaca;fill-opacity:1;stroke-width:0.399296"
     d="m 26.91254,192.67742 c -5.446771,-0.15911 -7.602538,-0.36306 -8.085735,-0.76497 -1.225736,-1.01952 -1.124408,-2.11154 3.950607,-42.57591 1.43227,-11.41985 3.047424,-23.90651 3.589231,-27.74813 1.122061,-7.95584 1.183385,-9.14077 0.485984,-9.39049 -0.274516,-0.0983 -5.350561,-0.35349 -11.2801,-0.5671 C 4.1379866,111.21891 2.1960729,110.90488 2.1962039,109.46775 2.1963397,107.97952 3.7841503,98.674282 4.2247291,97.579738 4.7254458,96.33579 6.023834,95.681581 8.9314607,95.208192 11.840757,94.734531 75.294022,93.901194 75.723828,94.331002 c 0.283935,0.283933 -1.867266,12.002228 -2.66436,14.513648 -0.58916,1.85628 -2.718783,2.26037 -14.551084,2.76105 -5.374135,0.22741 -9.901384,0.54446 -10.060552,0.70456 -0.315954,0.3178 -1.897684,13.00442 -6.508082,52.19951 -1.653268,14.05521 -3.112138,26.22873 -3.241933,27.05228 l -0.23599,1.49735 -2.061204,-0.0825 c -1.133663,-0.0454 -5.4033,-0.18014 -9.488083,-0.29947 z"
     id="path21"
     transform="scale(0.75000001)" />
</svg>
