<?xml version="1.0" encoding="UTF-8" standalone="no"?>
<svg
   version="1.0"
   width="300.000000pt"
   height="169.000000pt"
   viewBox="0 0 300.000000 169.000000"
   preserveAspectRatio="xMidYMid meet"
   id="svg3"
   sodipodi:docname="telkom-3.svg"
   inkscape:version="1.4 (e7c3feb100, 2024-10-09)"
   xmlns:inkscape="http://www.inkscape.org/namespaces/inkscape"
   xmlns:sodipodi="http://sodipodi.sourceforge.net/DTD/sodipodi-0.dtd"
   xmlns="http://www.w3.org/2000/svg"
   xmlns:svg="http://www.w3.org/2000/svg">
  <defs
     id="defs3" />
  <sodipodi:namedview
     id="namedview3"
     pagecolor="#ffffff"
     bordercolor="#000000"
     borderopacity="0.25"
     inkscape:showpageshadow="2"
     inkscape:pageopacity="0.0"
     inkscape:pagecheckerboard="0"
     inkscape:deskcolor="#d1d1d1"
     inkscape:document-units="pt"
     inkscape:zoom="1.7344992"
     inkscape:cx="166.90696"
     inkscape:cy="89.651236"
     inkscape:window-width="1600"
     inkscape:window-height="1000"
     inkscape:window-x="0"
     inkscape:window-y="0"
     inkscape:window-maximized="1"
     inkscape:current-layer="svg3"
     showguides="true" />
  <metadata
     id="metadata1">
Created by potrace 1.10, written by Peter Selinger 2001-2011
</metadata>
  <g
     id="g42"
     transform="matrix(1.6979587,0,0,1.710374,-87.599756,-59.895706)">
    <path
       style="fill:#00aaca;stroke-width:0.273855"
       d="m 124.21918,125.66808 c -0.25187,-0.65634 0.87318,-2.69644 2.31804,-4.2034 2.73736,-2.85501 5.33211,-3.22121 6.43005,-0.90749 0.59449,1.2528 0.17344,2.29436 -1.35019,3.33997 -2.48381,1.70454 -7.0078,2.7875 -7.3979,1.77092 z"
       id="path5"
       transform="scale(0.75)" />
    <path
       style="fill:#00aaca;stroke-width:0.0389828"
       d="m 212.67774,139.77289 c -1.43658,-0.17863 -2.59093,-1.24582 -3.31532,-3.06497 -0.0779,-0.19563 -0.14163,-0.40475 -0.14163,-0.46473 0,-0.06 -0.0247,-0.13674 -0.055,-0.17059 -0.13921,-0.15573 -0.40976,-1.57635 -0.49428,-2.59543 -0.0565,-0.68082 -0.0249,-2.26061 0.0596,-2.98218 0.42811,-3.65611 1.83779,-6.81044 4.01612,-8.98657 1.25453,-1.25326 2.37435,-1.82148 3.47101,-1.76125 0.43279,0.0238 0.67944,0.0959 1.12063,0.32761 0.34779,0.18267 0.90557,0.71919 1.18845,1.14312 1.04939,1.57265 1.60781,4.1934 1.60851,7.549 7.9e-4,3.76102 -0.85915,6.84985 -2.44839,8.79443 -0.95106,1.16372 -2.25442,1.9402 -3.61279,2.15234 -0.47391,0.074 -1.07349,0.0994 -1.39688,0.0592 z m 1.47933,-0.42529 c 2.40456,-0.49625 4.55233,-3.34857 5.33034,-7.07889 0.39758,-1.90625 0.47729,-4.19584 0.21782,-6.25675 -0.37769,-2.99997 -1.37235,-5.21046 -2.62261,-5.82837 -0.25457,-0.12581 -0.34153,-0.1482 -0.6423,-0.16535 -0.91583,-0.0522 -2.02735,0.46954 -3.15431,1.48067 -0.87336,0.78359 -1.5859,1.71685 -2.24031,2.93425 -2.24221,4.17118 -2.72635,9.1234 -1.20049,12.27959 0.33053,0.68369 0.65098,1.14282 1.12916,1.61779 0.58587,0.58193 1.13651,0.89227 1.83284,1.03298 0.37522,0.0758 0.93745,0.0692 1.34986,-0.0159 z"
       id="path7"
       transform="scale(0.75)" />
    <path
       style="fill:#00aaca;stroke-width:0.0491215"
       d="m 75.183233,100.28155 c -8.66e-4,-0.0405 0.07478,-0.24859 0.168101,-0.462359 0.714179,-1.635954 2.93179,-4.81545 4.82284,-6.914737 3.12566,-3.46985 7.417185,-6.05162 11.124177,-6.692276 1.145801,-0.198022 2.623553,-0.22295 3.457026,-0.05832 l 0.343851,0.06792 -0.343851,0.0074 c -1.333271,0.02862 -2.891824,0.109142 -3.389384,0.17512 -1.516812,0.201133 -2.674706,0.556122 -4.101645,1.257488 -2.242719,1.102336 -3.739556,2.208495 -5.873269,4.340334 -2.338805,2.336749 -4.366703,4.970875 -5.63656,7.321574 -0.505923,0.936546 -0.569465,1.043086 -0.571286,0.957876 z"
       id="path16"
       transform="scale(0.75)" />
    <path
       style="fill:#00aaca;stroke-width:0.0491215"
       d="m 98.24546,85.308033 c 0.02567,-0.02232 0.234555,-0.181096 0.464198,-0.352843 0.229643,-0.171747 0.494899,-0.37326 0.589458,-0.447807 0.235768,-0.185873 0.741484,-0.485054 0.819894,-0.485054 0.10571,0 0.0748,0.119139 -0.132193,0.509866 -0.123865,0.233787 -0.197762,0.439577 -0.199938,0.556793 -0.0028,0.148752 -0.0119,0.166291 -0.04567,0.0877 -0.02322,-0.05403 -0.04377,-0.170777 -0.04567,-0.259429 -0.0066,-0.307548 -0.260853,-0.265671 -0.972411,0.160153 -0.41114,0.246042 -0.600603,0.337517 -0.47767,0.230625 z"
       id="path27"
       transform="scale(0.75)" />
    <path
       style="fill:#00aaca;fill-opacity:1;stroke-width:0.265489"
       d="m 157.35713,119.36456 c -0.87611,-0.19973 -3.14605,-0.96176 -5.0443,-1.69341 -4.71409,-1.81697 -5.08123,-1.90514 -9.1236,-2.1909 -4.09359,-0.28939 -5.15623,-0.52745 -6.53693,-1.46441 -1.31452,-0.89205 -2.35999,-0.80091 -2.47695,0.21595 -0.0648,0.5636 0.0574,0.7857 0.53099,0.96516 l 0.61517,0.2331 -0.66372,0.27043 c -0.36505,0.14873 -1.21557,0.46501 -1.89005,0.70283 -0.67447,0.23783 -1.60441,0.84791 -2.06653,1.35574 -0.60442,0.66421 -1.00532,0.88982 -1.42857,0.80392 -2.58049,-0.52368 -7.23092,-0.74433 -12.28551,-0.5829 l -5.6411,0.18015 -2.41902,-0.80368 c -1.33045,-0.44202 -2.66376,-0.80368 -2.96289,-0.80368 -0.29914,0 -1.94008,0.47108 -3.64653,1.04686 -3.823973,1.29022 -6.565593,1.69861 -9.043853,1.34713 -2.15526,-0.30567 -2.0166,-0.25971 -5.850232,-1.93952 -2.37003,-1.03849 -3.353423,-1.33389 -4.51332,-1.35574 -1.38882,-0.0262 -1.478985,0.0102 -1.419315,0.57213 0.05888,0.55404 -0.0144,0.58756 -0.955073,0.43714 -0.889155,-0.14218 -1.143457,-0.0535 -1.998375,0.69716 -0.852022,0.74809 -1.21974,0.87726 -2.82393,0.99205 -2.080418,0.14885 -4.592822,-0.2604 -6.366113,-1.03699 -1.275218,-0.55846 -2.654894,-1.71935 -2.654894,-2.23388 0,-0.54178 -1.338702,-1.67746 -2.078095,-1.76293 -0.642577,-0.0742 -0.701629,-0.17329 -0.625671,-1.04903 0.05802,-0.6689 -0.146593,-1.40549 -0.663724,-2.3894 l -0.747597,-1.42241 0.126353,-5.57528 c 0.230853,-10.18638 0.165731,-14.78467 -0.225595,-15.92937 -0.512697,-1.49973 -1.539338,-2.52121 -2.53895,-2.52621 -1.08663,-0.005 -1.336826,-0.23286 -1.383349,-1.25751 -0.02329,-0.51291 -0.535143,-1.65903 -1.261075,-2.82375 -1.362929,-2.18673 -1.460591,-2.7078 -0.690896,-3.68631 0.631675,-0.80305 0.67948,-1.25501 0.132745,-1.25501 -0.596449,0 -0.515267,-0.21546 0.932602,-2.47522 1.871065,-2.92026 4.957037,-5.91233 7.42877,-7.20273 1.810047,-0.94496 2.229389,-1.0531 4.646065,-1.19819 1.971966,-0.11839 2.933835,-0.30569 3.733009,-0.72692 0.99216,-0.52294 1.098485,-0.53265 1.356101,-0.12383 0.245154,0.38904 1.141187,0.46384 7.286349,0.60825 3.853748,0.0906 7.206653,0.24914 7.450898,0.35239 0.244245,0.10325 0.51246,0.36594 0.59604,0.58374 0.09482,0.2471 0.339652,0.33644 0.65109,0.2376 0.606352,-0.19245 1.98168,0.85919 5.875242,4.49246 3.17142,2.95941 4.829643,4.12501 5.868403,4.12501 0.46181,0 1.25925,-0.43915 2.22293,-1.22415 1.77369,-1.44484 5.13256,-5.29497 5.34877,-6.13106 0.17973,-0.69505 1.38266,-1.17743 4.57547,-1.83477 1.29008,-0.2656 2.62219,-0.73048 3.1822,-1.11051 0.8746,-0.59352 1.03686,-0.62146 1.76338,-0.3037 0.44008,0.19248 1.36763,0.35736 2.06122,0.3664 0.93476,0.0122 1.26213,0.11949 1.26515,0.41468 0.0109,1.07443 0.38445,1.18428 2.43157,0.71514 1.06971,-0.24515 2.63313,-0.51509 3.47424,-0.59988 1.09217,-0.11009 1.75618,-0.34506 2.32303,-0.82203 0.55576,-0.46764 0.79373,-0.55374 0.79373,-0.2872 0,0.52671 0.77795,1.15207 1.70949,1.37419 0.89383,0.21314 1.82689,0.82008 3.78582,2.46263 2.36236,1.98083 4.8477,2.77634 6.92571,2.21679 1.25965,-0.33919 1.91064,-1.26135 1.92255,-2.72343 l 0.008,-0.87602 0.72296,0.86523 c 0.39763,0.47588 0.81256,0.86416 0.92207,0.86284 0.3002,-0.004 0.23902,-3.14862 -0.0726,-3.73083 -0.14943,-0.27921 -0.56757,-0.80354 -0.92921,-1.16518 -0.36164,-0.36164 -0.65752,-0.77389 -0.65752,-0.91612 0,-0.50715 0.84655,-1.09299 1.57939,-1.09299 1.71058,0 1.71574,-1.69269 0.009,-2.82241 -1.07943,-0.71434 -1.345,-1.15993 -0.69129,-1.15993 0.72127,0 1.0404,-0.71974 0.72293,-1.63044 -0.16202,-0.464785 -0.23055,-0.909104 -0.15228,-0.987373 0.0783,-0.07827 0.64524,-0.0081 1.25994,0.156004 0.61469,0.164073 1.16844,0.2475 1.23055,0.185395 0.0621,-0.06211 -0.39715,-0.58381 -1.02057,-1.159345 -0.62342,-0.575534 -1.08482,-1.202769 -1.02534,-1.393854 0.0595,-0.191086 0.56049,-0.57152 1.11336,-0.845409 0.8035,-0.398051 1.82733,-0.525609 5.10214,-0.635668 2.25332,-0.07573 4.04041,-0.194216 3.97132,-0.263303 -0.0691,-0.06909 -1.39756,-0.353776 -2.95216,-0.63264 -3.4574,-0.62019 -4.71031,-1.098538 -4.58005,-1.748623 0.0688,-0.343475 0.30607,-0.4508 0.88327,-0.399561 0.43405,0.03853 5.62772,0.165805 11.5415,0.282831 11.90885,0.235661 11.75115,0.212164 13.79082,2.054887 1.31752,1.1903 2.26325,2.729789 2.81191,4.57734 0.22093,0.743943 0.72298,1.734459 1.11567,2.201139 0.52384,0.62255 0.79045,1.3506 1.00113,2.73386 0.27581,1.81086 0.3158,1.8849 1.01232,1.87432 0.49673,-0.008 0.68253,0.10009 0.58981,0.3417 -0.27571,0.71848 -0.91124,3.18116 -1.3339,5.1688 -0.23953,1.12646 -0.72699,2.59629 -1.08323,3.26629 -0.83283,1.56634 -0.85234,3.03021 -0.0503,3.77969 0.32855,0.30704 1.34778,0.73088 2.26498,0.94187 1.68106,0.38672 2.71295,1.02827 2.71295,1.68671 0,0.57706 0.34957,0.42012 1.12119,-0.50336 0.62741,-0.75088 0.7239,-0.7933 0.7301,-0.32098 0.01,0.72586 0.50302,1.18143 1.27979,1.18143 0.41336,0 0.68429,-0.18661 0.7751,-0.53388 0.27924,-1.06781 3.89009,-1.22748 4.90085,-0.21671 l 0.57685,0.57686 1.01609,-0.58479 1.01608,-0.58478 v 0.67165 c 0,0.54283 0.12976,0.67165 0.67653,0.67165 0.50936,0 0.76922,-0.21323 1.05157,-0.86284 0.20627,-0.47456 0.3797,-0.71351 0.38542,-0.53098 0.0236,0.75425 1.0639,1.39382 2.26705,1.39382 1.3759,0 1.49442,-0.26308 0.46461,-1.0314 l -0.7301,-0.54471 0.79647,-0.0311 c 3.35875,-0.13092 6.35243,0.4139 9.08675,1.6537 0.95965,0.43512 2.2332,0.87451 2.83012,0.97641 0.98371,0.16793 1.09966,0.27163 1.23867,1.10773 0.21422,1.28849 0.50636,1.75335 2.7412,4.36187 1.08221,1.26317 2.03229,2.6189 2.11129,3.01273 0.079,0.39383 0.29046,1.31341 0.4699,2.0435 0.21232,0.86384 0.32969,3.6455 0.3361,7.96469 0.008,5.64064 -0.0582,6.81228 -0.44327,7.80301 -0.47606,1.22488 -0.28869,1.88736 0.53381,1.88736 0.26984,0 0.14898,0.30324 -0.39681,0.99558 -0.43166,0.54757 -1.23129,1.89161 -1.77695,2.98676 -1.19226,2.39287 -2.14828,3.71685 -2.68389,3.71685 -0.21738,0 -1.22967,0.7837 -2.24953,1.74155 -1.4104,1.32463 -1.97984,1.7017 -2.37869,1.57511 -0.39735,-0.12611 -0.58649,-0.003 -0.78069,0.5077 -0.24638,0.648 -0.51751,0.77378 -2.25036,1.04392 -1.53375,0.2391 -4.17936,-0.33064 -5.5149,-1.18766 -1.04426,-0.6701 -1.34967,-0.75995 -1.6725,-0.49202 -0.21723,0.18028 -0.39495,0.48531 -0.39495,0.67784 0,0.75003 -0.61072,0.66537 -1.34504,-0.18645 l -0.76926,-0.89235 -0.74626,0.88514 c -0.62024,0.73565 -0.99095,0.9154 -2.1951,1.06433 -1.94398,0.24042 -5.2789,-0.0719 -7.89238,-0.73921 -3.00167,-0.76639 -4.836,-0.73461 -5.61757,0.0973 -1.21807,1.29658 -4.24408,1.5081 -6.34839,0.44377 -3.01156,-1.52322 -10.70371,-1.44165 -12.00583,0.12731 -1.14539,1.38011 -4.23435,1.96601 -7.01868,1.33126 z M 78.467537,106.79613 c 0.250725,-2.15379 0.989828,-8.63505 1.642448,-14.40281 0.65262,-5.76776 1.25745,-10.9816 1.34406,-11.58631 l 0.157485,-1.09947 3.757402,-0.10205 c 5.53641,-0.15034 6.654923,-0.90033 6.856613,-4.59752 0.08386,-1.53714 0.06083,-1.60124 -0.7098,-1.9745 -0.991178,-0.4801 -10.579778,-0.74746 -19.791479,-0.55186 -7.226214,0.15344 -7.686675,0.2777 -7.686675,2.07425 0,0.55004 -0.183291,1.70376 -0.407314,2.56385 -0.612532,2.35166 -0.583463,2.36608 5.014763,2.48818 l 4.597953,0.10027 -0.336511,1.93514 c -0.185082,1.06433 -0.88742,6.27803 -1.560751,11.586 -0.673332,5.30797 -1.45815,11.19152 -1.74404,13.07456 -0.285891,1.88304 -0.519801,3.64523 -0.519801,3.91597 0,0.45984 0.294056,0.49226 4.464891,0.49226 h 4.464891 z m 18.358,3.64054 c 4.944573,-0.70481 9.690373,-3.36912 9.690373,-5.4402 0,-0.52156 -0.22156,-1.03086 -0.59736,-1.37314 -1.53786,-1.40073 -2.81652,-1.4772 -5.24341,-0.31359 -3.418123,1.63886 -7.047993,1.21347 -8.07275,-0.94605 -0.568125,-1.19723 -0.53256,-1.92832 0.11055,-2.2725 0.293407,-0.15703 1.876387,-0.62826 3.517737,-1.04719 4.016903,-1.02525 5.781393,-1.71997 7.695663,-3.02997 3.77925,-2.58628 4.62174,-6.08959 2.2565,-9.38314 -1.5338,-2.13577 -4.12354,-3.26421 -7.491283,-3.26421 -3.964,0 -7.22544,1.42828 -10.23087,4.48041 -3.082905,3.13081 -4.514467,6.55225 -4.508235,10.77464 0.0093,6.29416 3.66162,10.99902 9.156233,11.79489 0.876112,0.1269 1.652672,0.24293 1.725682,0.25784 0.073,0.0149 0.96904,-0.0921 1.99117,-0.23779 z m 19.726083,-0.31705 c 0.65982,-0.31583 0.73256,-0.51107 0.91789,-2.46379 0.33403,-3.51968 2.54822,-21.06756 3.52734,-27.95498 1.07193,-7.54021 1.07727,-7.646 0.40392,-8.00637 -0.28417,-0.15208 -2.18139,-0.27483 -4.24783,-0.27483 -3.23169,0 -3.73431,0.0567 -3.73431,0.42088 0,0.82234 -2.92396,26.34364 -3.58661,31.30511 -0.37054,2.77437 -0.74958,5.63115 -0.84228,6.3484 l -0.16858,1.3041 3.50693,-0.16775 c 1.96187,-0.0938 3.82264,-0.31887 4.22353,-0.51077 z m 14.38931,0.2559 c 0,-0.57363 3.42099,-29.56841 3.98246,-33.75348 0.29197,-2.17636 0.53086,-4.23722 0.53086,-4.5797 v -0.62269 h -4.11508 c -2.72299,0 -4.11509,0.0953 -4.11509,0.28156 0,0.64256 -3.01597,25.32794 -3.86233,31.61265 -0.50406,3.743 -0.91648,6.93883 -0.91648,7.10184 0,0.20585 1.29769,0.29639 4.24783,0.29639 3.25296,0 4.24783,-0.0788 4.24783,-0.33657 z m 17.25682,0.17004 c 0,-0.0916 -1.50246,-3.61221 -3.33879,-7.8236 l -3.3388,-7.65708 1.83036,-2.19862 c 3.30957,-3.97546 4.84723,17.6793 4.84723,17.6793 z m 14.04623,-0.24226 c 5.12354,-1.2077 9.66783,-5.92835 10.78588,-11.20444 1.00897,-4.76128 0.0398,-9.7785 -2.41658,-12.51062 -4.49091,-4.99496 -11.81252,-4.56738 -17.37604,1.01477 -3.19058,3.20127 -4.7617,7.01236 -4.77008,11.57089 -0.0149,8.13604 5.96876,12.96989 13.77682,11.1294 z m 19.47139,0.12946 c 0.68896,-0.19134 1.12406,-0.52565 1.41412,-1.08655 0.23043,-0.44561 0.82065,-3.57614 1.31159,-6.95674 0.87031,-5.99284 1.35642,-7.99516 2.46212,-10.14167 0.59102,-1.14735 2.08021,-2.68834 2.7109,-2.80519 0.76266,-0.14129 1.59284,0.33575 1.76281,1.01295 0.367,1.46225 -0.35314,8.90591 -1.53107,15.82562 -0.51622,3.03254 -0.53554,3.44443 -0.17822,3.80175 0.30609,0.30608 1.34035,0.43683 4.37909,0.55362 l 3.97835,0.1529 0.32406,-4.08739 c 0.58159,-7.33567 1.28955,-11.19081 2.58534,-14.0782 1.22595,-2.73179 3.01379,-3.7289 4.16207,-2.32127 0.4644,0.56928 0.49986,0.92714 0.36499,3.68367 -0.0822,1.67922 -0.57475,6.03989 -1.09464,9.69036 -0.51989,3.65048 -0.94572,6.72684 -0.94629,6.83636 -5.7e-4,0.10951 1.90507,0.19911 4.23477,0.19911 h 4.23579 l 0.1419,-0.86283 c 0.078,-0.47457 0.4516,-3.55093 0.83011,-6.83636 1.84068,-15.97689 1.02923,-19.28854 -4.8013,-19.59456 -3.43073,-0.18007 -4.79637,0.33717 -7.25402,2.74747 -1.1023,1.08107 -2.02133,1.93889 -2.04228,1.90626 -0.0209,-0.0326 -0.41223,-0.72434 -0.86951,-1.53713 -0.97542,-1.73376 -1.45124,-2.20712 -2.77423,-2.7599 -2.61051,-1.09074 -6.19785,-0.13929 -8.0647,2.13895 -0.95695,1.16784 -1.42536,1.44885 -1.42536,0.85512 0,-0.17293 -0.24422,-0.8189 -0.54271,-1.43551 -0.73619,-1.52076 -1.74861,-1.96692 -4.46331,-1.96692 h -2.13813 l -0.14372,0.86283 c -0.079,0.47457 -0.5097,4.20801 -0.95703,8.29655 -0.44732,4.08855 -1.05453,9.16603 -1.34937,11.28331 -0.92692,6.65659 -0.91695,6.3249 -0.19497,6.48485 1.95083,0.43218 4.59124,0.49446 5.87285,0.13854 z M 151.05656,79.35395 c 3.03653,-0.55087 3.90204,-1.36487 10.37316,-9.75585 2.06765,-2.68108 3.75935,-4.95854 3.75935,-5.06102 0,-0.10249 -0.99881,-2.74743 -2.21958,-5.87764 l -2.21958,-5.691305 -1.4309,-0.1868 c -1.94623,-0.254075 -7.27713,-0.321437 -7.641,-0.09655 -0.76395,0.47215 0.18689,2.815022 3.78554,9.327555 l 1.18332,2.14147 -2.18505,2.50459 c -2.70171,3.0968 -4.82468,5.02674 -5.52951,5.02674 -0.45609,0 -0.51128,0.12083 -0.3724,0.81523 0.22364,1.11821 -0.32861,2.0824 -2.5169,4.39438 -1.00518,1.062 -1.8276,2.03272 -1.8276,2.15715 0,0.12443 0.14934,0.38151 0.33186,0.57128 0.36548,0.38 3.68813,0.24257 6.50929,-0.26923 z m 15.99422,-0.51745 c 1.85597,-1.02381 8.21679,-8.84892 9.85732,-12.12653 1.24409,-2.48556 1.05641,-4.19967 -1.09039,-9.95861 l -1.65773,-4.446949 -3.75535,0.0036 c -4.93109,0.0047 -5.04629,0.0385 -4.88036,1.429043 0.0715,0.599215 1.09972,3.287526 2.28491,5.974026 l 2.1549,4.88455 -1.4199,1.75269 c -0.78094,0.96398 -3.46817,4.25651 -5.97161,7.31675 -2.50345,3.06023 -4.55171,5.6735 -4.55171,5.80725 0,0.14131 1.64227,0.19653 3.92008,0.13182 3.55567,-0.10101 4.03068,-0.17237 5.10984,-0.76767 z"
       id="path29"
       sodipodi:nodetypes="cssssscssscscsscssccssssscsscsscssssssssscssssssssssscsssssssccscsssscsssssssssssssssssscssssssscssscccssssssccsssssscssssssssssssscssssssccssscssssssscssssscscscssssssssssscssssssscccsssscsssssscscscsscscsssssssssscsssssssccssssssssssccsssssssscssscssssssscsscssscsssscc" />
    <path
       style="fill:#00aaca;fill-opacity:1;stroke:#00aaca;stroke-width:0.666667;stroke-dasharray:none;stroke-opacity:1"
       d="m 212.9588,139.36025 c -0.65521,-0.0865 -1.25196,-0.39614 -1.8526,-0.9614 -0.48697,-0.45828 -0.79185,-0.86013 -1.09833,-1.44767 -0.42435,-0.81349 -0.67071,-1.55325 -0.86477,-2.59669 -0.13866,-0.74558 -0.17386,-2.62469 -0.0666,-3.55587 0.24084,-2.09103 0.79134,-3.92603 1.76008,-5.86689 1.00867,-2.02089 2.11865,-3.32961 3.62465,-4.27367 0.62385,-0.39106 1.12496,-0.55942 1.75117,-0.58834 0.49934,-0.0231 0.51549,-0.0205 0.81724,0.12803 1.33465,0.65704 2.34035,2.98604 2.70198,6.25725 0.10971,0.99239 0.10971,3.05811 0,4.05051 -0.16879,1.52682 -0.4779,2.82451 -0.95782,4.02108 -1.10223,2.74815 -2.95993,4.58376 -4.89238,4.83421 -0.40277,0.0522 -0.52341,0.0521 -0.92261,-5.5e-4 z"
       id="path30"
       transform="scale(0.75)" />
    <path
       style="fill:#ffed00;fill-opacity:1;stroke:#00aaca;stroke-width:0.176948;stroke-dasharray:none;stroke-opacity:1"
       d="m 192.72663,147.1505 c -3.85481,-0.40656 -5.37862,-0.91341 -7.87973,-3.71959 -2.08493,-2.33924 -3.43159,-4.5725 -4.06856,-6.74699 -1.84551,-6.30015 -1.54919,-6.72904 -1.98972,-6.82073 0.65421,-0.62628 2.28513,-0.1149 0.0377,0.0963 -1.1072,0 3.41128,-7.91898 4.94988,-10.40864 1.97031,-3.1882 4.7838,-6.5231 6.14313,-7.2816 1.05882,-0.59082 0.75626,-0.78972 4.03499,-0.88215 4.27616,-0.12054 5.51021,0.0403 5.51021,0.71832 0,0.81199 -3.40331,6.62058 -8.77599,13.09517 l -1.37527,1.65733 4.24025,9.75582 c 2.33214,5.3657 3.53455,9.90237 3.63705,10.23083 -0.53055,1.11012 -3.08852,0.44124 -4.46395,0.30584 z"
       id="path39"
       transform="scale(0.75)"
       sodipodi:nodetypes="ssscsssssscssss" />
    <g
       id="g41">
      <path
         style="fill:#ffed00;fill-opacity:1;stroke:#00aaca;stroke-width:0.0943899;stroke-dasharray:none;stroke-opacity:1"
         d="m 211.20914,106.02886 c -0.17521,-0.0398 -0.31857,-0.11187 -0.31857,-0.16021 0,-0.18286 2.52885,-3.39982 6.64907,-8.458302 2.34683,-2.881251 5.34693,-6.564612 6.6669,-8.185245 1.31997,-1.620635 2.39995,-3.032001 2.39995,-3.136367 0,-0.104367 -0.64377,-1.645486 -1.43059,-3.424708 -2.82299,-6.383546 -4.26791,-10.062376 -4.42229,-11.259334 -0.10625,-0.823819 0.16002,-1.207363 0.9682,-1.394616 0.31149,-0.07217 2.7963,-0.132523 5.52181,-0.134116 l 4.95547,-0.0029 0.9008,2.441857 c 3.08188,8.354255 3.53503,9.85966 3.65445,12.140415 0.0953,1.819518 -0.12454,2.786862 -1.03375,4.549444 -1.86986,3.624853 -7.31422,10.6513 -11.20013,14.454802 -1.61077,1.57661 -2.6101,2.13798 -4.2145,2.36749 -1.07417,0.15366 -8.57583,0.32006 -9.09682,0.20179 z"
         id="path40"
         transform="scale(0.75)" />
      <path
         style="fill:#ffed00;fill-opacity:1;stroke:#00aaca;stroke-width:0.0943899;stroke-dasharray:none;stroke-opacity:1"
         d="m 193.27823,106.28825 c -0.22539,-0.0548 -0.53666,-0.26976 -0.69172,-0.47767 l -0.28192,-0.37803 0.31087,-0.40069 c 0.17099,-0.22038 1.08753,-1.25268 2.03678,-2.29401 3.02566,-3.319175 3.53442,-4.154697 3.49226,-5.735289 -0.037,-1.387728 -0.0446,-1.362023 0.40392,-1.362023 0.78029,0 2.53259,-1.436996 5.26918,-4.321053 1.5104,-1.59179 5.09079,-5.6573 5.09079,-5.780557 0,-0.03745 -0.83375,-1.586764 -1.85276,-3.442929 -3.43441,-6.255857 -5.16262,-10.061425 -5.05748,-11.136714 0.0788,-0.805499 0.25699,-0.831537 5.06963,-0.740606 4.1889,0.07915 6.94886,0.301373 7.19873,0.57963 0.22715,0.252953 5.82707,14.849553 5.82707,15.188682 0,0.379792 -6.94992,9.531301 -10.39561,13.688714 -3.19114,3.850285 -4.86493,5.210035 -7.13853,5.799175 -2.21111,0.57296 -8.13494,1.0921 -9.28121,0.81337 z"
         id="path41"
         transform="scale(0.75)" />
    </g>
  </g>
</svg>
