<?xml version="1.0" encoding="UTF-8" standalone="no"?>
<svg
   version="1.0"
   width="300.000000pt"
   height="169.000000pt"
   viewBox="0 0 300.000000 169.000000"
   preserveAspectRatio="xMidYMid meet"
   id="svg3"
   sodipodi:docname="telkom.svg"
   inkscape:version="1.4 (e7c3feb100, 2024-10-09)"
   xmlns:inkscape="http://www.inkscape.org/namespaces/inkscape"
   xmlns:sodipodi="http://sodipodi.sourceforge.net/DTD/sodipodi-0.dtd"
   xmlns="http://www.w3.org/2000/svg"
   xmlns:svg="http://www.w3.org/2000/svg">
  <defs
     id="defs3" />
  <sodipodi:namedview
     id="namedview3"
     pagecolor="#00aaca"
     bordercolor="#000000"
     borderopacity="0.25"
     inkscape:showpageshadow="2"
     inkscape:pageopacity="0.0"
     inkscape:pagecheckerboard="0"
     inkscape:deskcolor="#d1d1d1"
     inkscape:document-units="px"
     inkscape:zoom="2.5044105"
     inkscape:cx="169.10167"
     inkscape:cy="92.237277"
     inkscape:window-width="1592"
     inkscape:window-height="971"
     inkscape:window-x="0"
     inkscape:window-y="0"
     inkscape:window-maximized="1"
     inkscape:current-layer="svg3" />
  <metadata
     id="metadata1">
Created by potrace 1.10, written by Peter Selinger 2001-2011
</metadata>
  <g
     id="g1"
     transform="matrix(1.9666703,0,0,1.9672388,-147.11738,-61.425838)">
    <g
       transform="matrix(0.1,0,0,-0.1,0,169)"
       fill="#000000"
       stroke="none"
       id="g3">
      <path
         style="fill:#ffed00;fill-opacity:1;stroke-width:0.413248"
         d="m 211.48977,96.386947 c 0.73323,-1.346517 3.53476,-5.360174 6.22562,-8.919239 4.90844,-6.492137 6.47186,-8.958569 6.47186,-10.209963 0,-0.369875 -0.64741,-1.830177 -1.43869,-3.245114 -1.41141,-2.523839 -5.28133,-11.060786 -5.07274,-11.190364 0.30993,-0.192542 11.71872,0.717292 11.94638,0.952706 0.37554,0.388341 5.72275,14.30289 5.72275,14.891779 0,0.684464 -12.46515,16.636017 -14.02697,17.950202 -1.60654,1.351817 -3.38506,1.820216 -7.76197,2.044226 l -3.39938,0.17398 z"
         id="path9"
         transform="matrix(7.5,0,0,-7.5,0,1690)" />
      <path
         style="fill:#ffed00;fill-opacity:1;stroke-width:0.413248"
         d="m 211.43261,96.961393 c 0.53738,-0.945821 2.71392,-4.087979 4.83674,-6.982574 5.89449,-8.037487 7.9179,-11.23088 7.9179,-12.496245 0,-0.624359 -1.39172,-3.994302 -3.0927,-7.488761 -1.70099,-3.494459 -3.0957,-6.517019 -3.09937,-6.716801 -0.006,-0.341245 5.17255,-0.106548 9.59269,0.434728 l 1.95426,0.239312 2.50618,6.391695 c 1.3784,3.515432 2.60659,6.893717 2.7293,7.507298 0.23872,1.193565 -1.58461,3.819967 -9.64359,13.891096 -4.39239,5.489072 -5.62195,6.231751 -11.0153,6.653484 l -3.66317,0.286442 z"
         id="path10"
         transform="matrix(7.5000001,0,0,-7.5000001,0,1690)" />
      <path
         style="fill:#ffed00;fill-opacity:1;stroke-width:0.413248"
         d="m 227.29039,98.523062 c 0.63739,-1.08838 2.83679,-3.871838 9.2073,-11.652333 5.97484,-7.297247 6.33117,-7.830468 5.93745,-8.88484 -0.23037,-0.61693 -1.71965,-4.097078 -3.30951,-7.733664 -1.58985,-3.636586 -2.75056,-6.757063 -2.57933,-6.934394 0.17122,-0.17733 2.78658,-0.270311 5.81191,-0.206624 l 5.5006,0.115796 2.19425,5.992101 c 2.43485,6.649165 2.72654,9.002737 1.461,11.788658 -1.35703,2.987343 -9.77417,13.605187 -12.35913,15.59048 -1.91727,1.472496 -3.56278,1.915959 -8.31797,2.241684 -3.28281,0.224868 -3.83494,0.175539 -3.54657,-0.316864 z"
         id="path11"
         transform="matrix(7.5000001,0,0,-7.5000001,0,1690)" />
      <path
         style="fill:#ffed00;fill-opacity:1;stroke-width:0.129963"
         d="m 204.36637,139.76635 c -3.35232,-0.50099 -4.90463,-2.53677 -7.57451,-9.9336 -1.86201,-5.15867 -2.69254,-8.15309 -2.69254,-9.70782 0,-1.86289 0.8819,-3.56028 3.98821,-7.6761 4.5345,-6.00815 6.27427,-7.74048 8.44795,-8.41186 0.70488,-0.21772 1.18856,-0.2588 2.94365,-0.25 2.16486,0.0109 3.02243,-0.10604 4.75883,-0.64871 0.46155,-0.14425 0.85764,-0.24381 0.8802,-0.22125 0.0926,0.0926 -0.81122,2.45103 -1.46304,3.81783 -1.02641,2.15223 -1.72266,3.13796 -5.70336,8.07462 -2.26173,2.80488 -3.58353,4.54845 -3.54689,4.67865 0.0665,0.23629 4.31362,10.24992 6.78529,15.99802 0.90671,2.10865 1.70003,3.96549 1.76292,4.12632 l 0.11436,0.29241 -3.99314,-0.0158 c -2.19622,-0.009 -4.31479,-0.0639 -4.70793,-0.12267 z"
         id="path12"
         transform="matrix(7.5000001,0,0,-7.5000001,0,1690)" />
      <path
         style="fill:#ffffff;fill-opacity:1;stroke-width:0.129963"
         d="m 140.8146,139.95761 c -4.40069,-0.52408 -7.64943,-2.03884 -9.45067,-4.4065 -2.16557,-2.84654 -3.28832,-7.17578 -3.1177,-12.02155 0.20339,-5.77623 2.0096,-10.02889 5.82829,-13.72246 2.87358,-2.77943 6.37071,-4.64001 10.39935,-5.53276 1.08489,-0.24041 1.73302,-0.29765 3.35872,-0.29665 2.2242,0.001 3.57143,0.2544 5.15136,0.9675 4.84191,2.18538 6.90896,7.93127 4.50201,12.51444 -1.63098,3.10559 -5.29791,5.03903 -13.26501,6.99413 -3.71262,0.91107 -4.81988,1.29487 -5.44989,1.88904 -0.44963,0.42406 -0.46003,0.45588 -0.39249,1.20079 0.096,1.05896 0.72295,2.32687 1.48005,2.9933 1.20124,1.05738 2.80203,1.56518 4.94384,1.56829 2.14932,0.003 3.88415,-0.47392 5.85263,-1.60934 1.96506,-1.13344 3.05202,-1.27887 4.42617,-0.5922 1.0719,0.53563 2.03996,1.46891 2.24488,2.16423 0.14825,0.50302 0.13367,0.60104 -0.18685,1.25614 -0.59856,1.22341 -3.02703,3.21465 -5.57097,4.56795 -1.33853,0.71206 -3.76469,1.52147 -5.42525,1.80997 -1.2055,0.20944 -4.42112,0.36373 -5.32847,0.25568 z m 0.73879,-21.68344 c 1.48034,-0.31226 3.94415,-1.10371 5.05688,-1.62442 1.10869,-0.51882 2.0238,-1.24135 2.33542,-1.84396 0.53558,-1.03571 -0.11764,-2.84458 -1.25887,-3.48599 -0.46015,-0.25862 -0.66425,-0.29078 -1.52807,-0.24078 -0.81831,0.0474 -1.14764,0.13757 -1.8376,0.50328 -1.95309,1.03522 -5.0661,4.83075 -5.0661,6.17682 0,0.72647 0.62846,0.8673 2.29834,0.51505 z"
         id="path13"
         transform="matrix(7.5000001,0,0,-7.5000001,0,1690)" />
      <path
         style="fill:#ffffff;fill-opacity:1;stroke-width:0.129963"
         d="m 110.40333,139.8343 c -0.10722,-0.0232 -0.4077,-0.0767 -0.66774,-0.11888 -0.26004,-0.0422 -0.62556,-0.22956 -0.81227,-0.41627 -0.48064,-0.48064 -0.4564,-1.01951 0.30861,-6.85887 0.35645,-2.72077 1.05863,-8.2804 1.5604,-12.35473 1.60637,-13.04362 1.96461,-15.79858 2.41666,-18.58467 0.24355,-1.501068 0.44296,-2.773079 0.44312,-2.826688 1.5e-4,-0.05361 -2.27633,-0.09747 -5.05886,-0.09747 -7.92759,0 -8.54431,-0.170556 -7.94108,-2.196107 0.39594,-1.329494 0.63419,-2.667086 0.73668,-4.135975 0.0834,-1.195711 0.11263,-1.294782 0.49461,-1.677996 0.49614,-0.497741 1.60397,-0.771784 3.90619,-0.966266 0.8686,-0.07337 8.55021,-0.165983 17.33821,-0.209024 15.32731,-0.07507 15.77601,-0.07039 15.68621,0.163635 -0.45722,1.191476 -1.50846,6.123788 -1.50846,7.077495 0,0.993605 -0.92551,1.539011 -3.05465,1.800125 -0.64303,0.07886 -3.11371,0.143545 -5.4904,0.143747 -3.37065,2.85e-4 -4.32106,0.0361 -4.32036,0.162819 5e-4,0.08935 -0.5029,4.256275 -1.11866,9.259845 -0.61577,5.00356 -1.71561,14.21467 -2.4441,20.46912 l -1.32454,11.37174 -4.47731,0.0183 c -2.46253,0.01 -4.56504,-6.9e-4 -4.67226,-0.0238 z"
         id="path14"
         sodipodi:nodetypes="csssssssscsssssssssscccc"
         transform="matrix(7.5000001,0,0,-7.5000001,0,1690)" />
      <path
         style="fill:#ffffff;fill-opacity:1;stroke-width:0.129963"
         d="m 161.08879,139.66445 c 0,-0.14745 0.14909,-1.19175 0.33131,-2.32067 0.92815,-5.75023 2.93419,-22.3352 4.82021,-39.85124 l 1.01932,-9.466774 4.67985,0.05809 c 4.84385,0.06012 5.41959,0.120794 5.92293,0.624138 0.30698,0.30697 0.32572,0.964989 0.0664,2.33089 -0.60945,3.210059 -5.58775,42.971046 -5.87957,46.959256 -0.0709,0.96917 -0.12624,1.17463 -0.35618,1.32262 -0.57679,0.37122 -1.78312,0.47792 -6.15304,0.54423 -4.43154,0.0672 -4.45122,0.0663 -4.45122,-0.20054 z"
         id="path15"
         transform="matrix(7.5000001,0,0,-7.5000001,0,1690)" />
      <path
         style="fill:#ffffff;fill-opacity:1;stroke-width:0.129963"
         d="m 179.3372,139.4175 c 0.68137,-4.34169 5.51856,-43.591033 6.00234,-48.703524 0.15137,-1.599596 0.43331,-1.97701 1.76615,-2.364187 0.53547,-0.15555 1.64575,-0.21493 4.94671,-0.264563 2.34096,-0.0352 4.25628,-0.03377 4.25628,0.0032 0,0.03694 -0.14769,1.081434 -0.3282,2.321093 -0.54293,3.728566 -1.8345,14.338561 -3.04298,24.997401 -0.81035,7.14729 -2.70923,23.35708 -2.81271,24.01061 l -0.0772,0.48736 h -5.39345 -5.39345 z"
         id="path16"
         transform="matrix(7.5000001,0,0,-7.5000001,0,1690)" />
      <path
         style="fill:#ffffff;fill-opacity:1;stroke-width:0.129963"
         d="m 224.77052,139.76333 c -1.84083,-0.2366 -3.46017,-1.13372 -5.78334,-3.204 -2.81431,-2.50795 -3.95457,-4.02576 -4.42879,-5.89522 -0.32467,-1.27991 -0.40765,-6.94938 -0.13237,-9.04435 1.08818,-8.28164 5.81496,-14.42028 12.82244,-16.65245 2.43086,-0.77432 5.42105,-1.07811 8.01363,-0.81414 2.60327,0.26505 4.15411,0.92281 6.19787,2.62871 1.85912,1.55178 3.55332,3.59489 4.20007,5.06505 1.08715,2.47123 1.26687,7.82922 0.41525,12.37943 -1.558,8.32434 -6.9852,13.86406 -14.90595,15.21497 -1.12863,0.19249 -4.41912,0.47701 -5.16417,0.44653 -0.21444,-0.009 -0.77003,-0.0648 -1.23464,-0.12453 z m 6.12541,-7.98719 c 1.79577,-0.63359 3.41236,-2.73148 4.20642,-5.45879 0.59985,-2.06028 0.74842,-3.46877 0.67104,-6.36176 -0.1072,-4.00801 -0.50481,-6.06352 -1.33314,-6.89185 -0.84587,-0.84587 -2.84315,-1.1057 -4.3039,-0.55989 -2.24947,0.84051 -4.72751,5.34704 -5.45244,9.91575 -0.25032,1.57758 -0.17422,4.28814 0.15339,5.46371 0.63494,2.27837 1.92899,3.74308 3.61685,4.09383 0.64795,0.13465 1.74683,0.0442 2.44178,-0.201 z"
         id="path17"
         sodipodi:nodetypes="csssssssssccsssssssss"
         transform="matrix(7.5000001,0,0,-7.5000001,0,1690)" />
      <path
         style="fill:#ffffff;fill-opacity:1;stroke-width:0.129963"
         d="m 251.34789,139.84453 c -0.0715,-0.0266 -0.35581,-0.0862 -0.63184,-0.13258 -0.27604,-0.0463 -0.64156,-0.22391 -0.81227,-0.39462 -0.37174,-0.37175 -0.40791,-1.05011 -0.12242,-2.29607 0.59651,-2.60341 1.88147,-12.98904 3.59478,-29.05473 l 0.41926,-3.93138 2.28524,0.002 c 3.15281,0.003 4.48605,0.31492 5.35755,1.25298 0.41258,0.44408 0.67347,0.96542 1.40693,2.81145 0.30647,0.77134 0.603,1.38542 0.65895,1.36461 0.0559,-0.0208 0.75274,-0.75417 1.54841,-1.62968 1.62606,-1.78922 2.43574,-2.45466 3.65318,-3.00238 1.26885,-0.57084 2.42675,-0.81227 3.88743,-0.81053 2.23282,0.003 4.04082,0.67152 5.34985,1.97917 0.59037,0.58976 0.93384,1.13007 1.75526,2.76121 0.5617,1.11538 1.06192,2.02819 1.1116,2.02847 0.0497,2.8e-4 0.90794,-0.88093 1.90724,-1.95824 2.1949,-2.36623 3.09642,-3.11227 4.63052,-3.83188 1.63679,-0.76779 2.30125,-0.90407 4.35376,-0.89296 3.82729,0.0207 6.25923,1.08416 7.43234,3.25004 0.47098,0.86956 0.95666,2.59502 1.13109,4.01838 0.20356,1.66111 0.17805,5.86089 -0.053,8.72977 -0.18051,2.24113 -1.7749,17.95976 -1.95204,19.2447 l -0.0762,0.55234 h -5.46189 -5.46189 l 0.0763,-0.48736 c 0.042,-0.26804 0.42968,-3.14623 0.86155,-6.39595 1.36897,-10.30147 1.77244,-14.51333 1.64376,-17.15979 -0.12906,-2.6544 -0.61113,-3.50899 -1.9794,-3.50899 -4.01067,0 -6.30138,5.1267 -7.40391,16.57024 -0.11707,1.21516 -0.36933,4.16856 -0.56057,6.56312 l -0.34771,4.35375 -4.41235,0.0343 c -2.61321,0.0203 -4.70573,-0.02 -5.13186,-0.0987 -0.94648,-0.17497 -1.32451,-0.54888 -1.40128,-1.38601 -0.0346,-0.37773 0.25684,-2.83482 0.72984,-6.15231 1.35258,-9.48677 1.70313,-12.72828 1.70061,-15.72549 -0.002,-2.79501 -0.30631,-3.80211 -1.30638,-4.32828 -0.68561,-0.36072 -1.86808,-0.25279 -2.67133,0.24382 -1.74952,1.08164 -3.44253,4.46356 -4.38688,8.76312 -0.18054,0.82202 -0.65415,3.85647 -1.05245,6.74322 -1.27325,9.228 -1.72658,10.83571 -3.26959,11.59529 -0.60798,0.29929 -0.75093,0.31215 -3.75117,0.33763 -1.71551,0.0146 -3.17759,0.005 -3.24907,-0.0218 z"
         id="path18"
         transform="matrix(7.5000001,0,0,-7.5000001,0,1690)" />
    </g>
  </g>
</svg>
